<?xml version="1.0" encoding="UTF-8" standalone="no"?>
<!-- Created with Monet 0.1.0 (https://github.com/ziotom78/monet)-->

<svg
    width="300mm"
    height="320mm"
    viewBox="0 0 300 320"
    version="1.1"
    xmlns="http://www.w3.org/2000/svg">
  <g name="canvas" transform="translate(0 320) scale(1 -1) ">
    <rect
      x="0" y="0"
      width="300" height="16"
      stroke="#000000" stroke-width="1" fill="#000000"/>
    <text
      x="0" y="0"
      text-anchor="middle"
      dominant-baseline="central"
      font-family="monospace" font-size="8"
      transform="translate(150 8) scale(1 -1)"
      fill="#ffffff">
black
    </text>
    <rect
      x="0" y="16"
      width="300" height="16"
      stroke="#000000" stroke-width="1" fill="#7f0000"/>
    <text
      x="0" y="0"
      text-anchor="middle"
      dominant-baseline="central"
      font-family="monospace" font-size="8"
      transform="translate(150 24) scale(1 -1)"
      fill="#ffffff">
darkred
    </text>
    <rect
      x="0" y="32"
      width="300" height="16"
      stroke="#000000" stroke-width="1" fill="#007f00"/>
    <text
      x="0" y="0"
      text-anchor="middle"
      dominant-baseline="central"
      font-family="monospace" font-size="8"
      transform="translate(150 40) scale(1 -1)"
      fill="#ffffff">
darkgreen
    </text>
    <rect
      x="0" y="48"
      width="300" height="16"
      stroke="#000000" stroke-width="1" fill="#00007f"/>
    <text
      x="0" y="0"
      text-anchor="middle"
      dominant-baseline="central"
      font-family="monospace" font-size="8"
      transform="translate(150 56) scale(1 -1)"
      fill="#ffffff">
darkblue
    </text>
    <rect
      x="0" y="64"
      width="300" height="16"
      stroke="#000000" stroke-width="1" fill="#7f7f00"/>
    <text
      x="0" y="0"
      text-anchor="middle"
      dominant-baseline="central"
      font-family="monospace" font-size="8"
      transform="translate(150 72) scale(1 -1)"
      fill="#ffffff">
brown
    </text>
    <rect
      x="0" y="80"
      width="300" height="16"
      stroke="#000000" stroke-width="1" fill="#7f007f"/>
    <text
      x="0" y="0"
      text-anchor="middle"
      dominant-baseline="central"
      font-family="monospace" font-size="8"
      transform="translate(150 88) scale(1 -1)"
      fill="#ffffff">
darkpurple
    </text>
    <rect
      x="0" y="96"
      width="300" height="16"
      stroke="#000000" stroke-width="1" fill="#007f7f"/>
    <text
      x="0" y="0"
      text-anchor="middle"
      dominant-baseline="central"
      font-family="monospace" font-size="8"
      transform="translate(150 104) scale(1 -1)"
      fill="#ffffff">
darkcyan
    </text>
    <rect
      x="0" y="112"
      width="300" height="16"
      stroke="#000000" stroke-width="1" fill="#ff0000"/>
    <text
      x="0" y="0"
      text-anchor="middle"
      dominant-baseline="central"
      font-family="monospace" font-size="8"
      transform="translate(150 120) scale(1 -1)"
      fill="#000000">
red
    </text>
    <rect
      x="0" y="128"
      width="300" height="16"
      stroke="#000000" stroke-width="1" fill="#00ff00"/>
    <text
      x="0" y="0"
      text-anchor="middle"
      dominant-baseline="central"
      font-family="monospace" font-size="8"
      transform="translate(150 136) scale(1 -1)"
      fill="#000000">
green
    </text>
    <rect
      x="0" y="144"
      width="300" height="16"
      stroke="#000000" stroke-width="1" fill="#0000ff"/>
    <text
      x="0" y="0"
      text-anchor="middle"
      dominant-baseline="central"
      font-family="monospace" font-size="8"
      transform="translate(150 152) scale(1 -1)"
      fill="#ffffff">
blue
    </text>
    <rect
      x="0" y="160"
      width="300" height="16"
      stroke="#000000" stroke-width="1" fill="#ffff00"/>
    <text
      x="0" y="0"
      text-anchor="middle"
      dominant-baseline="central"
      font-family="monospace" font-size="8"
      transform="translate(150 168) scale(1 -1)"
      fill="#000000">
yellow
    </text>
    <rect
      x="0" y="176"
      width="300" height="16"
      stroke="#000000" stroke-width="1" fill="#ff00ff"/>
    <text
      x="0" y="0"
      text-anchor="middle"
      dominant-baseline="central"
      font-family="monospace" font-size="8"
      transform="translate(150 184) scale(1 -1)"
      fill="#000000">
purple
    </text>
    <rect
      x="0" y="192"
      width="300" height="16"
      stroke="#000000" stroke-width="1" fill="#00ffff"/>
    <text
      x="0" y="0"
      text-anchor="middle"
      dominant-baseline="central"
      font-family="monospace" font-size="8"
      transform="translate(150 200) scale(1 -1)"
      fill="#000000">
cyan
    </text>
    <rect
      x="0" y="208"
      width="300" height="16"
      stroke="#000000" stroke-width="1" fill="#ff7f7f"/>
    <text
      x="0" y="0"
      text-anchor="middle"
      dominant-baseline="central"
      font-family="monospace" font-size="8"
      transform="translate(150 216) scale(1 -1)"
      fill="#000000">
lightred
    </text>
    <rect
      x="0" y="224"
      width="300" height="16"
      stroke="#000000" stroke-width="1" fill="#7fff7f"/>
    <text
      x="0" y="0"
      text-anchor="middle"
      dominant-baseline="central"
      font-family="monospace" font-size="8"
      transform="translate(150 232) scale(1 -1)"
      fill="#000000">
lightgreen
    </text>
    <rect
      x="0" y="240"
      width="300" height="16"
      stroke="#000000" stroke-width="1" fill="#7f7fff"/>
    <text
      x="0" y="0"
      text-anchor="middle"
      dominant-baseline="central"
      font-family="monospace" font-size="8"
      transform="translate(150 248) scale(1 -1)"
      fill="#000000">
lightblue
    </text>
    <rect
      x="0" y="256"
      width="300" height="16"
      stroke="#000000" stroke-width="1" fill="#ffff00"/>
    <text
      x="0" y="0"
      text-anchor="middle"
      dominant-baseline="central"
      font-family="monospace" font-size="8"
      transform="translate(150 264) scale(1 -1)"
      fill="#000000">
lightyellow
    </text>
    <rect
      x="0" y="272"
      width="300" height="16"
      stroke="#000000" stroke-width="1" fill="#ff7fff"/>
    <text
      x="0" y="0"
      text-anchor="middle"
      dominant-baseline="central"
      font-family="monospace" font-size="8"
      transform="translate(150 280) scale(1 -1)"
      fill="#000000">
lightpurple
    </text>
    <rect
      x="0" y="288"
      width="300" height="16"
      stroke="#000000" stroke-width="1" fill="#7fffff"/>
    <text
      x="0" y="0"
      text-anchor="middle"
      dominant-baseline="central"
      font-family="monospace" font-size="8"
      transform="translate(150 296) scale(1 -1)"
      fill="#000000">
lightcyan
    </text>
    <rect
      x="0" y="304"
      width="300" height="16"
      stroke="#000000" stroke-width="1" fill="#ffffff"/>
    <text
      x="0" y="0"
      text-anchor="middle"
      dominant-baseline="central"
      font-family="monospace" font-size="8"
      transform="translate(150 312) scale(1 -1)"
      fill="#000000">
white
    </text>
  </g>
</svg>
