<?xml version="1.0" encoding="UTF-8" standalone="no"?>
<!-- Created with Monet 0.0.7 (https://github.com/ziotom78/monet)-->

<svg
    width="500mm"
    height="150mm"
    viewBox="0 0 500 150"
    version="1.1"
    xmlns="http://www.w3.org/2000/svg">
  <g name="canvas" transform="translate(0 150) scale(1 -1) ">
    <rect
      x="0" y="0"
      width="40" height="50"
      stroke="#000000" stroke-width="1" fill="#a83200"/>
    <text
      x="0" y="0"
      text-anchor="middle"
      dominant-baseline="central"
      font-family="sans-serif" font-size="10"
      transform="translate(20 25) scale(1 -1)"
      fill="#000000">
5%
    </text>
    <text
      x="0" y="0"
      text-anchor="middle"
      dominant-baseline="central"
      font-family="sans-serif" font-size="10"
      transform="translate(450 25) scale(1 -1)"
      fill="#000000">
L: 33%
    </text>
    <rect
      x="40" y="0"
      width="40" height="50"
      stroke="#000000" stroke-width="1" fill="#a89700"/>
    <text
      x="0" y="0"
      text-anchor="middle"
      dominant-baseline="central"
      font-family="sans-serif" font-size="10"
      transform="translate(60 25) scale(1 -1)"
      fill="#000000">
15%
    </text>
    <text
      x="0" y="0"
      text-anchor="middle"
      dominant-baseline="central"
      font-family="sans-serif" font-size="10"
      transform="translate(450 25) scale(1 -1)"
      fill="#000000">
L: 33%
    </text>
    <rect
      x="80" y="0"
      width="40" height="50"
      stroke="#000000" stroke-width="1" fill="#54a800"/>
    <text
      x="0" y="0"
      text-anchor="middle"
      dominant-baseline="central"
      font-family="sans-serif" font-size="10"
      transform="translate(100 25) scale(1 -1)"
      fill="#000000">
25%
    </text>
    <text
      x="0" y="0"
      text-anchor="middle"
      dominant-baseline="central"
      font-family="sans-serif" font-size="10"
      transform="translate(450 25) scale(1 -1)"
      fill="#000000">
L: 33%
    </text>
    <rect
      x="120" y="0"
      width="40" height="50"
      stroke="#000000" stroke-width="1" fill="#00a810"/>
    <text
      x="0" y="0"
      text-anchor="middle"
      dominant-baseline="central"
      font-family="sans-serif" font-size="10"
      transform="translate(140 25) scale(1 -1)"
      fill="#000000">
35%
    </text>
    <text
      x="0" y="0"
      text-anchor="middle"
      dominant-baseline="central"
      font-family="sans-serif" font-size="10"
      transform="translate(450 25) scale(1 -1)"
      fill="#000000">
L: 33%
    </text>
    <rect
      x="160" y="0"
      width="40" height="50"
      stroke="#000000" stroke-width="1" fill="#00a875"/>
    <text
      x="0" y="0"
      text-anchor="middle"
      dominant-baseline="central"
      font-family="sans-serif" font-size="10"
      transform="translate(180 25) scale(1 -1)"
      fill="#000000">
45%
    </text>
    <text
      x="0" y="0"
      text-anchor="middle"
      dominant-baseline="central"
      font-family="sans-serif" font-size="10"
      transform="translate(450 25) scale(1 -1)"
      fill="#000000">
L: 33%
    </text>
    <rect
      x="200" y="0"
      width="40" height="50"
      stroke="#000000" stroke-width="1" fill="#0075a8"/>
    <text
      x="0" y="0"
      text-anchor="middle"
      dominant-baseline="central"
      font-family="sans-serif" font-size="10"
      transform="translate(220 25) scale(1 -1)"
      fill="#000000">
55%
    </text>
    <text
      x="0" y="0"
      text-anchor="middle"
      dominant-baseline="central"
      font-family="sans-serif" font-size="10"
      transform="translate(450 25) scale(1 -1)"
      fill="#000000">
L: 33%
    </text>
    <rect
      x="240" y="0"
      width="40" height="50"
      stroke="#000000" stroke-width="1" fill="#0010a8"/>
    <text
      x="0" y="0"
      text-anchor="middle"
      dominant-baseline="central"
      font-family="sans-serif" font-size="10"
      transform="translate(260 25) scale(1 -1)"
      fill="#000000">
65%
    </text>
    <text
      x="0" y="0"
      text-anchor="middle"
      dominant-baseline="central"
      font-family="sans-serif" font-size="10"
      transform="translate(450 25) scale(1 -1)"
      fill="#000000">
L: 33%
    </text>
    <rect
      x="280" y="0"
      width="40" height="50"
      stroke="#000000" stroke-width="1" fill="#5400a8"/>
    <text
      x="0" y="0"
      text-anchor="middle"
      dominant-baseline="central"
      font-family="sans-serif" font-size="10"
      transform="translate(300 25) scale(1 -1)"
      fill="#000000">
75%
    </text>
    <text
      x="0" y="0"
      text-anchor="middle"
      dominant-baseline="central"
      font-family="sans-serif" font-size="10"
      transform="translate(450 25) scale(1 -1)"
      fill="#000000">
L: 33%
    </text>
    <rect
      x="320" y="0"
      width="40" height="50"
      stroke="#000000" stroke-width="1" fill="#a80097"/>
    <text
      x="0" y="0"
      text-anchor="middle"
      dominant-baseline="central"
      font-family="sans-serif" font-size="10"
      transform="translate(340 25) scale(1 -1)"
      fill="#000000">
85%
    </text>
    <text
      x="0" y="0"
      text-anchor="middle"
      dominant-baseline="central"
      font-family="sans-serif" font-size="10"
      transform="translate(450 25) scale(1 -1)"
      fill="#000000">
L: 33%
    </text>
    <rect
      x="360" y="0"
      width="40" height="50"
      stroke="#000000" stroke-width="1" fill="#a80032"/>
    <text
      x="0" y="0"
      text-anchor="middle"
      dominant-baseline="central"
      font-family="sans-serif" font-size="10"
      transform="translate(380 25) scale(1 -1)"
      fill="#000000">
95%
    </text>
    <text
      x="0" y="0"
      text-anchor="middle"
      dominant-baseline="central"
      font-family="sans-serif" font-size="10"
      transform="translate(450 25) scale(1 -1)"
      fill="#000000">
L: 33%
    </text>
    <rect
      x="0" y="50"
      width="40" height="50"
      stroke="#000000" stroke-width="1" fill="#ff4c00"/>
    <text
      x="0" y="0"
      text-anchor="middle"
      dominant-baseline="central"
      font-family="sans-serif" font-size="10"
      transform="translate(20 75) scale(1 -1)"
      fill="#000000">
5%
    </text>
    <text
      x="0" y="0"
      text-anchor="middle"
      dominant-baseline="central"
      font-family="sans-serif" font-size="10"
      transform="translate(450 75) scale(1 -1)"
      fill="#000000">
L: 50%
    </text>
    <rect
      x="40" y="50"
      width="40" height="50"
      stroke="#000000" stroke-width="1" fill="#ffe500"/>
    <text
      x="0" y="0"
      text-anchor="middle"
      dominant-baseline="central"
      font-family="sans-serif" font-size="10"
      transform="translate(60 75) scale(1 -1)"
      fill="#000000">
15%
    </text>
    <text
      x="0" y="0"
      text-anchor="middle"
      dominant-baseline="central"
      font-family="sans-serif" font-size="10"
      transform="translate(450 75) scale(1 -1)"
      fill="#000000">
L: 50%
    </text>
    <rect
      x="80" y="50"
      width="40" height="50"
      stroke="#000000" stroke-width="1" fill="#7fff00"/>
    <text
      x="0" y="0"
      text-anchor="middle"
      dominant-baseline="central"
      font-family="sans-serif" font-size="10"
      transform="translate(100 75) scale(1 -1)"
      fill="#000000">
25%
    </text>
    <text
      x="0" y="0"
      text-anchor="middle"
      dominant-baseline="central"
      font-family="sans-serif" font-size="10"
      transform="translate(450 75) scale(1 -1)"
      fill="#000000">
L: 50%
    </text>
    <rect
      x="120" y="50"
      width="40" height="50"
      stroke="#000000" stroke-width="1" fill="#00ff19"/>
    <text
      x="0" y="0"
      text-anchor="middle"
      dominant-baseline="central"
      font-family="sans-serif" font-size="10"
      transform="translate(140 75) scale(1 -1)"
      fill="#000000">
35%
    </text>
    <text
      x="0" y="0"
      text-anchor="middle"
      dominant-baseline="central"
      font-family="sans-serif" font-size="10"
      transform="translate(450 75) scale(1 -1)"
      fill="#000000">
L: 50%
    </text>
    <rect
      x="160" y="50"
      width="40" height="50"
      stroke="#000000" stroke-width="1" fill="#00ffb2"/>
    <text
      x="0" y="0"
      text-anchor="middle"
      dominant-baseline="central"
      font-family="sans-serif" font-size="10"
      transform="translate(180 75) scale(1 -1)"
      fill="#000000">
45%
    </text>
    <text
      x="0" y="0"
      text-anchor="middle"
      dominant-baseline="central"
      font-family="sans-serif" font-size="10"
      transform="translate(450 75) scale(1 -1)"
      fill="#000000">
L: 50%
    </text>
    <rect
      x="200" y="50"
      width="40" height="50"
      stroke="#000000" stroke-width="1" fill="#00b2ff"/>
    <text
      x="0" y="0"
      text-anchor="middle"
      dominant-baseline="central"
      font-family="sans-serif" font-size="10"
      transform="translate(220 75) scale(1 -1)"
      fill="#000000">
55%
    </text>
    <text
      x="0" y="0"
      text-anchor="middle"
      dominant-baseline="central"
      font-family="sans-serif" font-size="10"
      transform="translate(450 75) scale(1 -1)"
      fill="#000000">
L: 50%
    </text>
    <rect
      x="240" y="50"
      width="40" height="50"
      stroke="#000000" stroke-width="1" fill="#0019ff"/>
    <text
      x="0" y="0"
      text-anchor="middle"
      dominant-baseline="central"
      font-family="sans-serif" font-size="10"
      transform="translate(260 75) scale(1 -1)"
      fill="#000000">
65%
    </text>
    <text
      x="0" y="0"
      text-anchor="middle"
      dominant-baseline="central"
      font-family="sans-serif" font-size="10"
      transform="translate(450 75) scale(1 -1)"
      fill="#000000">
L: 50%
    </text>
    <rect
      x="280" y="50"
      width="40" height="50"
      stroke="#000000" stroke-width="1" fill="#7f00ff"/>
    <text
      x="0" y="0"
      text-anchor="middle"
      dominant-baseline="central"
      font-family="sans-serif" font-size="10"
      transform="translate(300 75) scale(1 -1)"
      fill="#000000">
75%
    </text>
    <text
      x="0" y="0"
      text-anchor="middle"
      dominant-baseline="central"
      font-family="sans-serif" font-size="10"
      transform="translate(450 75) scale(1 -1)"
      fill="#000000">
L: 50%
    </text>
    <rect
      x="320" y="50"
      width="40" height="50"
      stroke="#000000" stroke-width="1" fill="#ff00e5"/>
    <text
      x="0" y="0"
      text-anchor="middle"
      dominant-baseline="central"
      font-family="sans-serif" font-size="10"
      transform="translate(340 75) scale(1 -1)"
      fill="#000000">
85%
    </text>
    <text
      x="0" y="0"
      text-anchor="middle"
      dominant-baseline="central"
      font-family="sans-serif" font-size="10"
      transform="translate(450 75) scale(1 -1)"
      fill="#000000">
L: 50%
    </text>
    <rect
      x="360" y="50"
      width="40" height="50"
      stroke="#000000" stroke-width="1" fill="#ff004c"/>
    <text
      x="0" y="0"
      text-anchor="middle"
      dominant-baseline="central"
      font-family="sans-serif" font-size="10"
      transform="translate(380 75) scale(1 -1)"
      fill="#000000">
95%
    </text>
    <text
      x="0" y="0"
      text-anchor="middle"
      dominant-baseline="central"
      font-family="sans-serif" font-size="10"
      transform="translate(450 75) scale(1 -1)"
      fill="#000000">
L: 50%
    </text>
    <rect
      x="0" y="100"
      width="40" height="50"
      stroke="#000000" stroke-width="1" fill="#ff8956"/>
    <text
      x="0" y="0"
      text-anchor="middle"
      dominant-baseline="central"
      font-family="sans-serif" font-size="10"
      transform="translate(20 125) scale(1 -1)"
      fill="#000000">
5%
    </text>
    <text
      x="0" y="0"
      text-anchor="middle"
      dominant-baseline="central"
      font-family="sans-serif" font-size="10"
      transform="translate(450 125) scale(1 -1)"
      fill="#000000">
L: 67%
    </text>
    <rect
      x="40" y="100"
      width="40" height="50"
      stroke="#000000" stroke-width="1" fill="#ffee56"/>
    <text
      x="0" y="0"
      text-anchor="middle"
      dominant-baseline="central"
      font-family="sans-serif" font-size="10"
      transform="translate(60 125) scale(1 -1)"
      fill="#000000">
15%
    </text>
    <text
      x="0" y="0"
      text-anchor="middle"
      dominant-baseline="central"
      font-family="sans-serif" font-size="10"
      transform="translate(450 125) scale(1 -1)"
      fill="#000000">
L: 67%
    </text>
    <rect
      x="80" y="100"
      width="40" height="50"
      stroke="#000000" stroke-width="1" fill="#aaff56"/>
    <text
      x="0" y="0"
      text-anchor="middle"
      dominant-baseline="central"
      font-family="sans-serif" font-size="10"
      transform="translate(100 125) scale(1 -1)"
      fill="#000000">
25%
    </text>
    <text
      x="0" y="0"
      text-anchor="middle"
      dominant-baseline="central"
      font-family="sans-serif" font-size="10"
      transform="translate(450 125) scale(1 -1)"
      fill="#000000">
L: 67%
    </text>
    <rect
      x="120" y="100"
      width="40" height="50"
      stroke="#000000" stroke-width="1" fill="#56ff67"/>
    <text
      x="0" y="0"
      text-anchor="middle"
      dominant-baseline="central"
      font-family="sans-serif" font-size="10"
      transform="translate(140 125) scale(1 -1)"
      fill="#000000">
35%
    </text>
    <text
      x="0" y="0"
      text-anchor="middle"
      dominant-baseline="central"
      font-family="sans-serif" font-size="10"
      transform="translate(450 125) scale(1 -1)"
      fill="#000000">
L: 67%
    </text>
    <rect
      x="160" y="100"
      width="40" height="50"
      stroke="#000000" stroke-width="1" fill="#56ffcc"/>
    <text
      x="0" y="0"
      text-anchor="middle"
      dominant-baseline="central"
      font-family="sans-serif" font-size="10"
      transform="translate(180 125) scale(1 -1)"
      fill="#000000">
45%
    </text>
    <text
      x="0" y="0"
      text-anchor="middle"
      dominant-baseline="central"
      font-family="sans-serif" font-size="10"
      transform="translate(450 125) scale(1 -1)"
      fill="#000000">
L: 67%
    </text>
    <rect
      x="200" y="100"
      width="40" height="50"
      stroke="#000000" stroke-width="1" fill="#56ccff"/>
    <text
      x="0" y="0"
      text-anchor="middle"
      dominant-baseline="central"
      font-family="sans-serif" font-size="10"
      transform="translate(220 125) scale(1 -1)"
      fill="#000000">
55%
    </text>
    <text
      x="0" y="0"
      text-anchor="middle"
      dominant-baseline="central"
      font-family="sans-serif" font-size="10"
      transform="translate(450 125) scale(1 -1)"
      fill="#000000">
L: 67%
    </text>
    <rect
      x="240" y="100"
      width="40" height="50"
      stroke="#000000" stroke-width="1" fill="#5667ff"/>
    <text
      x="0" y="0"
      text-anchor="middle"
      dominant-baseline="central"
      font-family="sans-serif" font-size="10"
      transform="translate(260 125) scale(1 -1)"
      fill="#000000">
65%
    </text>
    <text
      x="0" y="0"
      text-anchor="middle"
      dominant-baseline="central"
      font-family="sans-serif" font-size="10"
      transform="translate(450 125) scale(1 -1)"
      fill="#000000">
L: 67%
    </text>
    <rect
      x="280" y="100"
      width="40" height="50"
      stroke="#000000" stroke-width="1" fill="#aa56ff"/>
    <text
      x="0" y="0"
      text-anchor="middle"
      dominant-baseline="central"
      font-family="sans-serif" font-size="10"
      transform="translate(300 125) scale(1 -1)"
      fill="#000000">
75%
    </text>
    <text
      x="0" y="0"
      text-anchor="middle"
      dominant-baseline="central"
      font-family="sans-serif" font-size="10"
      transform="translate(450 125) scale(1 -1)"
      fill="#000000">
L: 67%
    </text>
    <rect
      x="320" y="100"
      width="40" height="50"
      stroke="#000000" stroke-width="1" fill="#ff56ee"/>
    <text
      x="0" y="0"
      text-anchor="middle"
      dominant-baseline="central"
      font-family="sans-serif" font-size="10"
      transform="translate(340 125) scale(1 -1)"
      fill="#000000">
85%
    </text>
    <text
      x="0" y="0"
      text-anchor="middle"
      dominant-baseline="central"
      font-family="sans-serif" font-size="10"
      transform="translate(450 125) scale(1 -1)"
      fill="#000000">
L: 67%
    </text>
    <rect
      x="360" y="100"
      width="40" height="50"
      stroke="#000000" stroke-width="1" fill="#ff5689"/>
    <text
      x="0" y="0"
      text-anchor="middle"
      dominant-baseline="central"
      font-family="sans-serif" font-size="10"
      transform="translate(380 125) scale(1 -1)"
      fill="#000000">
95%
    </text>
    <text
      x="0" y="0"
      text-anchor="middle"
      dominant-baseline="central"
      font-family="sans-serif" font-size="10"
      transform="translate(450 125) scale(1 -1)"
      fill="#000000">
L: 67%
    </text>
  </g>
</svg>
